REM DIRINDEX 1\2,1\3
REM DIRNAME folder01,folder02,folder03
TITLE ""
FILE "sample sentencesTrack09.mp3" MP3
  TRACK 01 AUDIO
    TITLE "3:cjc143_2609"
    INDEX 01 00:00:00
  TRACK 02 AUDIO
    TITLE "0:"
    INDEX 01 00:00:66
  TRACK 03 AUDIO
    TITLE "3:cjc143_2610"
    INDEX 01 00:01:38
  TRACK 04 AUDIO
    TITLE "0:"
    INDEX 01 00:03:23
  TRACK 05 AUDIO
    TITLE "3:cjc143_2611"
    INDEX 01 00:04:36
  TRACK 06 AUDIO
    TITLE "0:"
    INDEX 01 00:06:45
  TRACK 07 AUDIO
    TITLE "3:cjc143_2612"
    INDEX 01 00:07:52
  TRACK 08 AUDIO
    TITLE "0:"
    INDEX 01 00:10:25
  TRACK 09 AUDIO
    TITLE "3:cjc143_2613"
    INDEX 01 00:11:31
  TRACK 10 AUDIO
    TITLE "0:"
    INDEX 01 00:13:63
  TRACK 11 AUDIO
    TITLE "3:cjc143_2614"
    INDEX 01 00:14:68
  TRACK 12 AUDIO
    TITLE "0:"
    INDEX 01 00:17:70
  TRACK 13 AUDIO
    TITLE "3:cjc143_2615"
    INDEX 01 00:18:74
  TRACK 14 AUDIO
    TITLE "0:"
    INDEX 01 00:21:45
  TRACK 15 AUDIO
    TITLE "3:cjc143_2616"
    INDEX 01 00:22:50
  TRACK 16 AUDIO
    TITLE "0:"
    INDEX 01 00:26:01
  TRACK 17 AUDIO
    TITLE "3:cjc143_2617"
    INDEX 01 00:27:14
  TRACK 18 AUDIO
    TITLE "0:"
    INDEX 01 00:31:51
  TRACK 19 AUDIO
    TITLE "3:cjc143_2618"
    INDEX 01 00:32:62
  TRACK 20 AUDIO
    TITLE "0:"
    INDEX 01 00:36:05
  TRACK 21 AUDIO
    TITLE "3:cjc143_2619"
    INDEX 01 00:37:14
  TRACK 22 AUDIO
    TITLE "0:"
    INDEX 01 00:39:68
  TRACK 23 AUDIO
    TITLE "3:cjc143_2620"
    INDEX 01 00:41:16
  TRACK 24 AUDIO
    TITLE "0:"
    INDEX 01 00:44:32
  TRACK 25 AUDIO
    TITLE "3:cjc143_2621"
    INDEX 01 00:45:59
  TRACK 26 AUDIO
    TITLE "0:"
    INDEX 01 00:48:16
  TRACK 27 AUDIO
    TITLE "3:cjc143_2622"
    INDEX 01 00:49:25
  TRACK 28 AUDIO
    TITLE "0:"
    INDEX 01 00:54:03
  TRACK 29 AUDIO
    TITLE "3:cjc143_2623"
    INDEX 01 00:55:14
  TRACK 30 AUDIO
    TITLE "0:"
    INDEX 01 00:57:62
  TRACK 31 AUDIO
    TITLE "3:cjc143_2624"
    INDEX 01 00:58:71
  TRACK 32 AUDIO
    TITLE "0:"
    INDEX 01 01:01:56
  TRACK 33 AUDIO
    TITLE "3:cjc143_2625"
    INDEX 01 01:02:73
  TRACK 34 AUDIO
    TITLE "0:"
    INDEX 01 01:05:21
  TRACK 35 AUDIO
    TITLE "3:cjc143_2626"
    INDEX 01 01:06:26
  TRACK 36 AUDIO
    TITLE "0:"
    INDEX 01 01:09:09
  TRACK 37 AUDIO
    TITLE "3:cjc143_2627"
    INDEX 01 01:10:14
  TRACK 38 AUDIO
    TITLE "0:"
    INDEX 01 01:14:19
  TRACK 39 AUDIO
    TITLE "3:cjc143_2628"
    INDEX 01 01:15:27
  TRACK 40 AUDIO
    TITLE "0:"
    INDEX 01 01:17:51
  TRACK 41 AUDIO
    TITLE "3:cjc143_2629"
    INDEX 01 01:18:68
  TRACK 42 AUDIO
    TITLE "0:"
    INDEX 01 01:23:16
  TRACK 43 AUDIO
    TITLE "3:cjc143_2630"
    INDEX 01 01:24:22
  TRACK 44 AUDIO
    TITLE "0:"
    INDEX 01 01:27:32
  TRACK 45 AUDIO
    TITLE "3:cjc143_2631"
    INDEX 01 01:28:37
  TRACK 46 AUDIO
    TITLE "0:"
    INDEX 01 01:32:68
  TRACK 47 AUDIO
    TITLE "3:cjc143_2632"
    INDEX 01 01:33:72
  TRACK 48 AUDIO
    TITLE "0:"
    INDEX 01 01:36:41
  TRACK 49 AUDIO
    TITLE "3:cjc143_2633"
    INDEX 01 01:37:48
  TRACK 50 AUDIO
    TITLE "0:"
    INDEX 01 01:40:03
  TRACK 51 AUDIO
    TITLE "3:cjc143_2634"
    INDEX 01 01:41:10
  TRACK 52 AUDIO
    TITLE "0:"
    INDEX 01 01:44:73
  TRACK 53 AUDIO
    TITLE "3:cjc143_2635"
    INDEX 01 01:46:04
  TRACK 54 AUDIO
    TITLE "0:"
    INDEX 01 01:49:59
  TRACK 55 AUDIO
    TITLE "3:cjc143_2636"
    INDEX 01 01:50:64
  TRACK 56 AUDIO
    TITLE "0:"
    INDEX 01 01:53:35
  TRACK 57 AUDIO
    TITLE "3:cjc143_2637"
    INDEX 01 01:54:42
  TRACK 58 AUDIO
    TITLE "0:"
    INDEX 01 01:57:39
  TRACK 59 AUDIO
    TITLE "3:cjc143_2638"
    INDEX 01 01:58:44
  TRACK 60 AUDIO
    TITLE "0:"
    INDEX 01 02:02:13
  TRACK 61 AUDIO
    TITLE "3:cjc143_2639"
    INDEX 01 02:03:22
  TRACK 62 AUDIO
    TITLE "0:"
    INDEX 01 02:05:23
  TRACK 63 AUDIO
    TITLE "3:cjc143_2640"
    INDEX 01 02:06:28
  TRACK 64 AUDIO
    TITLE "0:"
    INDEX 01 02:08:74
  TRACK 65 AUDIO
    TITLE "3:cjc143_2641"
    INDEX 01 02:10:04
  TRACK 66 AUDIO
    TITLE "0:"
    INDEX 01 02:12:74
  TRACK 67 AUDIO
    TITLE "3:cjc143_2642"
    INDEX 01 02:14:04
  TRACK 68 AUDIO
    TITLE "0:"
    INDEX 01 02:17:22
  TRACK 69 AUDIO
    TITLE "3:cjc143_2643"
    INDEX 01 02:18:29
  TRACK 70 AUDIO
    TITLE "0:"
    INDEX 01 02:20:73
  TRACK 71 AUDIO
    TITLE "3:cjc143_2644"
    INDEX 01 02:22:09
  TRACK 72 AUDIO
    TITLE "0:"
    INDEX 01 02:24:42
  TRACK 73 AUDIO
    TITLE "3:cjc143_2645"
    INDEX 01 02:25:51
  TRACK 74 AUDIO
    TITLE "0:"
    INDEX 01 02:27:71
  TRACK 75 AUDIO
    TITLE "3:cjc143_2646"
    INDEX 01 02:29:06
  TRACK 76 AUDIO
    TITLE "0:"
    INDEX 01 02:32:08
  TRACK 77 AUDIO
    TITLE "3:cjc143_2647"
    INDEX 01 02:33:15
  TRACK 78 AUDIO
    TITLE "0:"
    INDEX 01 02:35:02
  TRACK 79 AUDIO
    TITLE "3:cjc143_2648"
    INDEX 01 02:36:13
  TRACK 80 AUDIO
    TITLE "0:"
    INDEX 01 02:38:71
  TRACK 81 AUDIO
    TITLE "3:cjc143_2649"
    INDEX 01 02:40:05
  TRACK 82 AUDIO
    TITLE "0:"
    INDEX 01 02:41:60
  TRACK 83 AUDIO
    TITLE "3:cjc143_2650"
    INDEX 01 02:42:69
  TRACK 84 AUDIO
    TITLE "0:"
    INDEX 01 02:45:48
  TRACK 85 AUDIO
    TITLE "3:cjc143_2651"
    INDEX 01 02:46:55
  TRACK 86 AUDIO
    TITLE "0:"
    INDEX 01 02:51:13
  TRACK 87 AUDIO
    TITLE "3:cjc143_2652"
    INDEX 01 02:52:20
  TRACK 88 AUDIO
    TITLE "0:"
    INDEX 01 02:56:16
  TRACK 89 AUDIO
    TITLE "3:cjc143_2653"
    INDEX 01 02:57:25
  TRACK 90 AUDIO
    TITLE "0:"
    INDEX 01 02:59:30
  TRACK 91 AUDIO
    TITLE "3:cjc143_2654"
    INDEX 01 03:00:37
  TRACK 92 AUDIO
    TITLE "0:"
    INDEX 01 03:02:58
  TRACK 93 AUDIO
    TITLE "3:cjc143_2655"
    INDEX 01 03:03:67
  TRACK 94 AUDIO
    TITLE "0:"
    INDEX 01 03:06:13
  TRACK 95 AUDIO
    TITLE "3:cjc143_2656"
    INDEX 01 03:07:28
  TRACK 96 AUDIO
    TITLE "0:"
    INDEX 01 03:10:50
  TRACK 97 AUDIO
    TITLE "3:cjc143_2657"
    INDEX 01 03:11:57
  TRACK 98 AUDIO
    TITLE "0:"
    INDEX 01 03:14:20
